# xmcd CD database file
#
# Track frame offsets:
#	182
#	12630
#	30740
#	54762
#	72515
#	94385
#	111362
#	130717
#	149955
#	168332
#	184557
#	206640
#	232712
#
# Disc length: 3240 seconds
#
# Revision: 0
# Processed by: cddbd v1.5.1PL0 Copyright (c) Steve Scherf et al.
# Submitted via: CDex 1.51
#
DISCID=b90ca60d
DTITLE=Eric Cabedoce - Xenos
DYEAR=1992
DGENRE=New Age
TTITLE0=Ouverture
TTITLE1=Phylon
TTITLE2=Theamaton
TTITLE3=Ballade
TTITLE4=Pyramide
TTITLE5=Zeus
TTITLE6=Mausolée
TTITLE7=Babylone
TTITLE8=Rhodes
TTITLE9=Ephèse
TTITLE10=Alexandrie
TTITLE11=Final
TTITLE12=Phydias
EXTD=YEAR: 1992
EXTT0=
EXTT1=
EXTT2=
EXTT3=
EXTT4=
EXTT5=
EXTT6=
EXTT7=
EXTT8=
EXTT9=
EXTT10=
EXTT11=
EXTT12=
PLAYORDER=
